PathFileType	4	(X/Y/Z)	C:\Users\Biomechanik\SynologyDrive\AlexP\Athlete_03\Athlete_3_22_07_06\sq_75_EMG\marker_experimental.trc
DataRate	CameraRate	NumFrames	NumMarkers	Units	OrigDataRate	OrigDataStartFrame	OrigNumFrames
200.000000	200.000000	4	58	mm	200.000000	163	1310
Frame#	Time	BL			BR			Athlete_3_RUA2_Opt:GLAB			Athlete_3_RUA2_Opt:RFHD			Athlete_3_RUA2_Opt:LFHD			Athlete_3_RUA2_Opt:C7			Athlete_3_RUA2_Opt:T6			Athlete_3_RUA2_Opt:SPINMOL			Athlete_3_RUA2_Opt:SPINM2			Athlete_3_RUA2_Opt:SPINM3			Athlete_3_RUA2_Opt:T12			Athlete_3_RUA2_Opt:BELTOL			Athlete_3_RUA2_Opt:BELT2			Athlete_3_RUA2_Opt:BELT3			Athlete_3_RUA2_Opt:SACROL			Athlete_3_RUA2_Opt:SACR2			Athlete_3_RUA2_Opt:SACR3			Athlete_3_RUA2_Opt:LTHOL			Athlete_3_RUA2_Opt:LTH2			Athlete_3_RUA2_Opt:LTH3			Athlete_3_RUA2_Opt:LSHAOL			Athlete_3_RUA2_Opt:LSHA2			Athlete_3_RUA2_Opt:LSHA3			Athlete_3_RUA2_Opt:LHEE			Athlete_3_RUA2_Opt:LTOE			Athlete_3_RUA2_Opt:LM5			Athlete_3_RUA2_Opt:RTHOL			Athlete_3_RUA2_Opt:RTH2			Athlete_3_RUA2_Opt:RTH3			Athlete_3_RUA2_Opt:RSHAOL			Athlete_3_RUA2_Opt:RSHA2			Athlete_3_RUA2_Opt:RSHA3			Athlete_3_RUA2_Opt:RHEE			Athlete_3_RUA2_Opt:RTOE			Athlete_3_RUA2_Opt:RM5			Athlete_3_RUA2_Opt:STRN			Athlete_3_RUA2_Opt:XIPH			Athlete_3_RUA2_Opt:LACR			Athlete_3_RUA2_Opt:LUAOL			Athlete_3_RUA2_Opt:LUA2			Athlete_3_RUA2_Opt:LUA3			Athlete_3_RUA2_Opt:LLAOL			Athlete_3_RUA2_Opt:LLA2			Athlete_3_RUA2_Opt:LLA3			Athlete_3_RUA2_Opt:LWRU			Athlete_3_RUA2_Opt:RACR			Athlete_3_RUA2_Opt:RUAOL			Athlete_3_RUA2_Opt:RUA3			Athlete_3_RUA2_Opt:RLAOL			Athlete_3_RUA2_Opt:RLA2			Athlete_3_RUA2_Opt:RLA3			Athlete_3_RUA2_Opt:RWRU			USERMO0			USERMO1			USERMO2			USERMO3			USERMO4			USERMO5			
		X1	Y1	Z1	X2	Y2	Z2	X3	Y3	Z3	X4	Y4	Z4	X5	Y5	Z5	X6	Y6	Z6	X7	Y7	Z7	X8	Y8	Z8	X9	Y9	Z9	X10	Y10	Z10	X11	Y11	Z11	X12	Y12	Z12	X13	Y13	Z13	X14	Y14	Z14	X15	Y15	Z15	X16	Y16	Z16	X17	Y17	Z17	X18	Y18	Z18	X19	Y19	Z19	X20	Y20	Z20	X21	Y21	Z21	X22	Y22	Z22	X23	Y23	Z23	X24	Y24	Z24	X25	Y25	Z25	X26	Y26	Z26	X27	Y27	Z27	X28	Y28	Z28	X29	Y29	Z29	X30	Y30	Z30	X31	Y31	Z31	X32	Y32	Z32	X33	Y33	Z33	X34	Y34	Z34	X35	Y35	Z35	X36	Y36	Z36	X37	Y37	Z37	X38	Y38	Z38	X39	Y39	Z39	X40	Y40	Z40	X41	Y41	Z41	X42	Y42	Z42	X43	Y43	Z43	X44	Y44	Z44	X45	Y45	Z45	X46	Y46	Z46	X47	Y47	Z47	X48	Y48	Z48	X49	Y49	Z49	X50	Y50	Z50	X51	Y51	Z51	X52	Y52	Z52	X53	Y53	Z53	X54	Y54	Z54	X55	Y55	Z55	X56	Y56	Z56	X57	Y57	Z57	X58	Y58	Z58	

164	0.8150000000000001	137.3237762451172	1263.029541015625	-2234.36865234375	209.7583923339844	1281.311157226562	-13.35960578918449	523.977294921875	1445.253784179688	-1113.597045898438	459.5727844238281	1457.348999023438	-1040.194946289062	465.0250854492188	1459.835083007812	-1194.623291015625	273.18359375	1371.435302734375	-1117.6455078125	119.4150238037109	1239.288818359375	-1125.918090820312	97.92300415039062	1208.785278320312	-1132.170288085938	64.52167510986328	1154.066040039062	-1084.301635742188	75.60400390625	1151.056884765625	-1132.93603515625	60.80591583251953	1094.935180664062	-1133.000244140625	27.01735687255859	1061.198486328125	-1131.116333007812	15.33110904693604	1001.112609863281	-1079.98876953125	11.04037380218506	1001.239196777344	-1129.983154296875	6.315289497375488	929.6505737304689	-1158.02099609375	15.2829008102417	938.3040771484376	-1108.378295898438	-19.44314575195312	882.7669067382814	-1118.999389648438	125.8484573364258	722.3099365234376	-1385.608032226562	82.77350616455078	655.0980834960939	-1381.196166992188	129.5901336669922	661.7545776367189	-1398.874267578125	94.31379699707031	326.8054504394532	-1493.786987304688	62.83430099487305	254.5221710205079	-1500.389038085938	108.4426803588867	269.2097473144532	-1513.548950195312	70.09217834472656	35.19401168823251	-1481.110473632812	268.8579711914062	49.15237808227548	-1545.09912109375	198.0667572021484	24.26925849914561	-1633.657836914062	104.0420684814453	693.7869262695312	-876.89013671875	142.5040588378906	632.0010375976562	-843.865966796875	96.46738433837891	633.2958984375	-863.988037109375	63.24279403686523	317.4613037109376	-774.84033203125	108.8335952758789	261.7928771972657	-741.2166137695312	64.89605712890625	256.7160644531251	-764.9228515625	63.67836380004883	35.75431060791021	-790.0877075195312	258.5258483886719	45.68648529052739	-711.8947143554688	189.8025360107422	37.24769973754886	-627.7943725585938	359.2598266601562	1222.518920898438	-1131.532348632812	332.0365295410156	1070.0576171875	-1126.900756835938	236.7433624267578	1312.906860351562	-1313.82373046875	102.7620010375977	1227.139404296875	-1333.240356445312	68.60154724121094	1185.344116210938	-1295.434326171875	69.03739929199219	1183.440551757812	-1346.215454101562	49.31298828125	1149.83056640625	-1423.784301757812	92.37978363037109	1164.748901367188	-1470.241943359375	90.71969604492188	1197.894897460938	-1432.581176757812	138.8068389892578	1240.259399414062	-1485.54052734375	253.8792266845703	1312.697631835938	-941.2926025390624	125.3522415161133	1214.41064453125	-901.9370727539061	69.70977783203125	1189.923828125	-899.2078247070311	75.51665496826172	1181.837524414062	-822.7343749999999	125.6748733520508	1222.705078125	-825.9600830078124	114.2510833740234	1206.29443359375	-778.6016235351561	150.5062713623047	1242.682373046875	-754.9912719726561	0.06714709848165512	0.01196589972823859	-0.05679940059781075	0.01010700035840273	0.06919500231742859	-0.06079519912600517	0.02877799980342388	0.05313640087842941	-0.02229340001940727	0.121459998190403	0.1674530059099198	-0.8778749704360962	0.3693000078201294	2.819000005722046	-0.3266350030899046	2.932600021362305	0	0	
165	0.8200000000000001	137.1759796142578	1263.292724609375	-2234.380859375	209.7080688476562	1281.047485351562	-13.37322425842277	523.8828735351562	1445.137573242188	-1113.53369140625	459.5080261230469	1457.226440429688	-1040.105224609375	464.9038391113281	1459.792846679688	-1194.532348632812	273.0716552734375	1371.406127929688	-1117.56005859375	119.28076171875	1239.279296875	-1125.893676757812	97.78506469726562	1208.778198242188	-1132.1328125	64.38079071044922	1154.0576171875	-1084.26953125	75.4560546875	1151.055053710938	-1132.905883789062	60.64801025390625	1094.936767578125	-1132.984741210938	26.87627220153809	1061.1943359375	-1131.11328125	15.18783760070801	1001.095458984375	-1080.003295898438	10.89991283416748	1001.233825683594	-1129.997924804688	6.168892383575439	929.6503295898439	-1158.052734375	15.12533569335938	938.2938842773439	-1108.407104492188	-19.59980583190918	882.7584228515626	-1119.036376953125	125.7089767456055	722.3441162109376	-1385.69287109375	82.65489196777344	655.1213378906251	-1381.281005859375	129.4539184570312	661.7966918945314	-1398.981079101562	94.23067474365234	326.8111877441407	-1493.872192382812	62.76560592651367	254.5201416015626	-1500.4521484375	108.3671722412109	269.2142028808595	-1513.62744140625	70.07904815673828	35.1955451965333	-1481.139282226562	268.8434448242188	49.16664505004892	-1545.128295898438	198.0638580322266	24.24039459228526	-1633.6767578125	103.9071502685547	693.7656860351562	-876.9327392578125	142.3766784667969	631.9794311523438	-843.919921875	96.34361267089844	633.26806640625	-864.0468139648438	63.16371917724609	317.4426269531251	-774.8762817382812	108.7630310058594	261.7883911132813	-741.2376098632812	64.84716796875	256.6789245605469	-764.9785766601562	63.67742538452148	35.75109100341802	-790.0875854492188	258.5240478515625	45.68687438964848	-711.892578125	189.8043823242188	37.24652481079105	-627.792236328125	359.0984497070312	1222.482299804688	-1131.498413085938	331.8817749023438	1070.01171875	-1126.918334960938	236.6365661621094	1312.907348632812	-1313.795776367188	102.6338195800781	1227.196166992188	-1333.209106445312	68.45479583740234	1185.405517578125	-1295.418823242188	68.88377380371094	1183.518920898438	-1346.203491210938	49.1383056640625	1149.938598632812	-1423.782592773438	92.207763671875	1164.844604492188	-1470.250244140625	90.56028747558594	1197.990234375	-1432.58544921875	138.6567993164062	1240.336791992188	-1485.547729492188	253.7472381591797	1312.6611328125	-941.2538452148436	125.2040176391602	1214.37890625	-901.9108886718749	69.59424591064453	1189.914916992188	-899.1917114257811	75.38982391357422	1181.775512695312	-822.7313842773436	125.5531539916992	1222.636352539062	-825.9624633789061	114.1522903442383	1206.212646484375	-778.6058349609374	150.4185028076172	1242.591552734375	-755.0014038085936	0.06687259674072266	0.01189079973846674	-0.05651620030403137	0.01021980028599501	0.06899599730968475	-0.06221979856491088	0.02889440022408962	0.05351530015468597	-0.02240720018744468	0.1208110004663467	0.1697700023651124	-0.8826469779014587	0.3685849905014038	2.819269895553589	-0.3271859884262083	2.932169914245605	0	0	
166	0.8250000000000001	137.030029296875	1263.551635742188	-2234.391845703125	209.6590728759766	1280.783203125	-13.38639545440666	523.7882690429688	1445.017211914062	-1113.474487304688	459.4439392089844	1457.100341796875	-1040.020141601562	464.7838439941406	1459.75	-1194.44580078125	272.95703125	1371.376586914062	-1117.481079101562	119.1449966430664	1239.269409179688	-1125.872436523438	97.64570617675781	1208.770629882812	-1132.098388671875	64.23952484130859	1154.049560546875	-1084.238403320312	75.30666351318359	1151.052368164062	-1132.877075195312	60.48920059204102	1094.937377929688	-1132.968994140625	26.73527336120605	1061.188842773438	-1131.108032226562	15.04684829711914	1001.077575683594	-1080.014404296875	10.76025199890137	1001.226928710938	-1130.008911132812	6.024619102478027	929.6440429687501	-1158.0751953125	14.97034740447998	938.2807006835939	-1108.428100585938	-19.75372314453125	882.7461547851564	-1119.061889648438	125.5651092529297	722.3765258789064	-1385.770629882812	82.53504180908203	655.1409912109376	-1381.357055664062	129.315185546875	661.8366699218751	-1399.0810546875	94.15045928955078	326.8172302246095	-1493.953002929688	62.69988250732422	254.5182495117188	-1500.511352539062	108.2945938110352	269.2191467285157	-1513.702758789062	70.06814575195312	35.19778060913095	-1481.165771484375	268.82958984375	49.18049240112314	-1545.15673828125	198.0620574951172	24.21124649047862	-1633.695922851562	103.7721862792969	693.7451782226562	-876.9694213867188	142.2477416992188	631.9579467773438	-843.9674072265625	96.21894073486328	633.2406005859375	-864.1011352539062	63.08479309082031	317.4230957031251	-774.9088134765625	108.6941223144531	261.7841491699219	-741.2560424804688	64.79924011230469	256.6417236328126	-765.0303344726562	63.67668151855469	35.74823760986333	-790.08740234375	258.5224304199219	45.68740081787114	-711.8898315429688	189.8061218261719	37.24512481689457	-627.7897338867188	358.9359436035156	1222.444580078125	-1131.46923828125	331.7260131835938	1069.966552734375	-1126.939086914062	236.5296173095703	1312.905639648438	-1313.773681640625	102.5054397583008	1227.250732421875	-1333.181762695312	68.30815124511719	1185.462768554688	-1295.409301757812	68.73070526123047	1183.592407226562	-1346.196899414062	48.9663200378418	1150.04248046875	-1423.7841796875	92.03892517089844	1164.9384765625	-1470.2607421875	90.40261840820312	1198.082153320312	-1432.591186523438	138.5077514648438	1240.413208007812	-1485.55419921875	253.6158752441406	1312.625122070312	-941.2184448242186	125.05615234375	1214.348510742188	-901.8867187499999	69.47445678710938	1189.905639648438	-899.1776123046874	75.26248168945312	1181.714111328125	-822.7290649414061	125.4311294555664	1222.568481445312	-825.9644165039061	114.0521621704102	1206.131591796875	-778.6090698242186	150.3302917480469	1242.500732421875	-755.0115356445311	0.06663969904184341	0.01182730030268431	-0.05643200129270554	0.01034559961408377	0.06843569874763489	-0.06392080336809158	0.0289303008466959	0.05373699963092804	-0.02243660017848014	0.1194169968366623	0.1725109964609147	-0.8869159817695618	0.3679279983043671	2.818979978561401	-0.3276439905166624	2.931699991226196	0	0	
167	0.8300000000000001	136.8852996826172	1263.805908203125	-2234.401611328125	209.6109313964844	1280.518310546875	-13.39903068542473	523.6929931640625	1444.89453125	-1113.420043945312	459.3797302246094	1456.972778320312	-1039.940551757812	464.6654052734375	1459.707397460938	-1194.3642578125	272.8404846191406	1371.34716796875	-1117.409912109375	119.0087356567383	1239.259643554688	-1125.85546875	97.50576019287109	1208.7626953125	-1132.068237304688	64.09816741943359	1154.0419921875	-1084.209838867188	75.15688323974609	1151.049072265625	-1132.850830078125	60.33041000366211	1094.937377929688	-1132.954345703125	26.59532165527344	1061.182250976562	-1131.102172851562	14.90863990783691	1001.059448242188	-1080.0234375	10.62210941314697	1001.21875	-1130.017456054688	5.882500171661377	929.6322021484376	-1158.08935546875	14.818678855896	938.2642822265626	-1108.442138671875	-19.90362739562988	882.7296752929689	-1119.077026367188	125.4161758422852	722.4064941406251	-1385.839721679688	82.41185760498047	655.1567993164064	-1381.422119140625	129.1721343994141	661.8740844726564	-1399.173217773438	94.07009887695312	326.8230285644532	-1494.027221679688	62.63491821289062	254.5155792236329	-1500.564453125	108.222412109375	269.2242736816407	-1513.772705078125	70.05923461914062	35.20043945312509	-1481.189697265625	268.81640625	49.19391632080087	-1545.184326171875	198.0614624023438	24.18221092224131	-1633.715209960938	103.6379623413086	693.7252197265625	-877.0004272460938	142.1180114746094	631.9364013671875	-844.0088500976562	96.0938720703125	633.21337890625	-864.1508178710938	63.00581741333008	317.4024047851563	-774.9387817382812	108.6267852783203	261.7799682617188	-741.2725830078125	64.75240325927734	256.6044311523438	-765.0786743164062	63.67617797851562	35.74568557739263	-790.08740234375	258.5211486816406	45.68800354003911	-711.8865966796875	189.8078155517578	37.24360656738285	-627.787109375	358.7732543945312	1222.405883789062	-1131.445434570312	331.5698547363281	1069.9228515625	-1126.963256835938	236.4228668212891	1312.902221679688	-1313.757568359375	102.3766860961914	1227.30419921875	-1333.15771484375	68.16218566894531	1185.516357421875	-1295.404663085938	68.57851409912109	1183.662109375	-1346.194702148438	48.79685592651367	1150.143188476562	-1423.788818359375	91.87290191650391	1165.031005859375	-1470.272827148438	90.24653625488281	1198.171142578125	-1432.597900390625	138.3595581054688	1240.488647460938	-1485.559692382812	253.4855499267578	1312.589233398438	-941.1865844726561	124.9086761474609	1214.3193359375	-901.8647460937499	69.34531402587891	1189.8935546875	-899.1682739257811	75.13454437255859	1181.653198242188	-822.7276611328124	125.3087615966797	1222.501342773438	-825.9661254882811	113.9503021240234	1206.050903320312	-778.6114501953124	150.2414245605469	1242.410034179688	-755.0216674804686	0.06642539799213409	0.01177760027348996	-0.05649669840931892	0.01048669964075089	0.06742779910564423	-0.06583579629659653	0.02884499914944172	0.05387119948863983	-0.02242040075361728	0.1172199994325638	0.175587996840477	-0.8904129862785339	0.3673110008239746	2.818209886550903	-0.328130006790161	2.931230068206787	0	0	
